HIERARCHY
ROOT SpineBase
{
  OFFSET 0.000000 0.000000 0.000000
  CHANNELS 6 Xposition Yposition Zposition Zrotation Xrotation Yrotation
  JOINT SpineMid
  {
    OFFSET -0.000000 29.117172 0.000000
    CHANNELS 3 Zrotation Xrotation Yrotation
    JOINT SpineShoulder
    {
      OFFSET -0.034455 21.631062 -0.626235
      CHANNELS 3 Zrotation Xrotation Yrotation
      JOINT Neck
      {
        OFFSET -0.031712 7.157847 -0.481397
        CHANNELS 3 Zrotation Xrotation Yrotation
        JOINT Head
        {
          OFFSET -1.822613 12.080283 -0.560043
          CHANNELS 3 Zrotation Xrotation Yrotation
          End Site
          {
            OFFSET 0 0 0
          }
        }
      }
      JOINT ShoulderLeft
      {
        OFFSET -16.343665 -1.824177 4.457450
        CHANNELS 3 Zrotation Xrotation Yrotation
        JOINT ElbowLeft
        {
          OFFSET -3.657626 -27.294120 1.374298
          CHANNELS 3 Zrotation Xrotation Yrotation
          JOINT WristLeft
          {
            OFFSET -2.259982 -20.016250 -4.541114
            CHANNELS 3 Zrotation Xrotation Yrotation
            JOINT HandLeft
            {
              OFFSET 1.291048 -5.295459 -1.807013
              CHANNELS 3 Zrotation Xrotation Yrotation
              JOINT HandTipLeft
              {
                OFFSET -0.038171 -7.268078 -1.526335
                CHANNELS 3 Zrotation Xrotation Yrotation
                End Site
                {
                  OFFSET 0 0 0
                }
              }
              JOINT ThumbLeft
              {
                OFFSET -2.996150 -1.889240 -1.650587
                CHANNELS 3 Zrotation Xrotation Yrotation
                End Site
                {
                  OFFSET 0 0 0
                }
              }
            }
          }
        }
      }
      JOINT ShoulderRight
      {
        OFFSET 15.282206 -2.604830 -4.903881
        CHANNELS 3 Zrotation Xrotation Yrotation
        JOINT ElbowRight
        {
          OFFSET 6.344056 -25.633244 -2.697630
          CHANNELS 3 Zrotation Xrotation Yrotation
          JOINT WristRight
          {
            OFFSET 0.160250 -20.520747 -4.003477
            CHANNELS 3 Zrotation Xrotation Yrotation
            JOINT HandRight
            {
              OFFSET -1.297105 -8.121162 -1.376393
              CHANNELS 3 Zrotation Xrotation Yrotation
              JOINT HandTipRight
              {
                OFFSET -0.168280 -6.448128 -1.686924
                CHANNELS 3 Zrotation Xrotation Yrotation
                End Site
                {
                  OFFSET 0 0 0
                }
              }
              JOINT ThumbRight
              {
                OFFSET 2.521143 -2.708615 -1.336698
                CHANNELS 3 Zrotation Xrotation Yrotation
                End Site
                {
                  OFFSET 0 0 0
                }
              }
            }
          }
        }
      }
    }
  }
  JOINT HipLeft
  {
    OFFSET -7.410006 0.538698 -1.811998
    CHANNELS 3 Zrotation Xrotation Yrotation
    JOINT KneeLeft
    {
      OFFSET -6.626410 -32.154313 4.546434
      CHANNELS 3 Zrotation Xrotation Yrotation
      JOINT AnkleLeft
      {
        OFFSET -2.115119 -34.561292 7.227221
        CHANNELS 3 Zrotation Xrotation Yrotation
        JOINT FootLeft
        {
          OFFSET -2.082974 -6.461022 -8.028397
          CHANNELS 3 Zrotation Xrotation Yrotation
          End Site
          {
            OFFSET 0 0 0
          }
        }
      }
    }
  }
  JOINT HipRight
  {
    OFFSET 6.910786 0.587185 -4.342605
    CHANNELS 3 Zrotation Xrotation Yrotation
    JOINT KneeRight
    {
      OFFSET 5.684680 -29.341499 4.399294
      CHANNELS 3 Zrotation Xrotation Yrotation
      JOINT AnkleRight
      {
        OFFSET 0.712413 -38.595066 9.777299
        CHANNELS 3 Zrotation Xrotation Yrotation
        JOINT FootRight
        {
          OFFSET -2.811303 0.020478 -5.184558
          CHANNELS 3 Zrotation Xrotation Yrotation
          End Site
          {
            OFFSET 0 0 0
          }
        }
      }
    }
  }
}
MOTION
Frames: 10
Frame Time: 0.033333
26.135232 76.477764 368.190912 -0.592757 -1.721541 15.301238 0.342994 -0.085497 -15.324805 0.129827 -0.200702 -0.008300 -5.871385 -0.804465 -0.619942 0.000000 0.000000 0.000000 -9.552281 26.831680 -1.400430 90.808766 51.511845 -52.167731 -39.324775 -8.304338 4.331795 -38.129344 24.577100 -35.502954 0.000000 0.000000 0.000000 0.000000 0.000000 0.000000 -8.422150 20.635152 7.274004 -95.418170 14.382176 17.486349 18.503351 18.455838 6.905959 -3.727643 2.590966 18.631896 0.000000 0.000000 0.000000 0.000000 0.000000 0.000000 3.690705 5.128033 -16.122275 0.111198 -4.769053 1.099398 0.494456 9.236123 -5.498556 0.000000 0.000000 0.000000 1.026355 1.503927 -15.323616 3.681040 0.566348 0.925684 7.611430 -28.835080 -13.058897 0.000000 0.000000 0.000000
26.028703 76.511631 368.130297 -0.556438 -1.726901 15.276668 0.337430 -0.137193 -15.298760 0.136197 -0.194069 -0.006368 -6.457594 -0.713608 -0.628360 0.000000 0.000000 0.000000 -10.105691 26.067263 -1.250887 93.327811 51.964379 -54.799758 -39.487020 -12.818288 3.996586 -35.785850 24.588612 -32.142796 0.000000 0.000000 0.000000 0.000000 0.000000 0.000000 -7.709511 21.197697 7.196689 -95.188439 15.364593 17.671926 18.931617 17.146222 5.811482 -8.069585 5.553739 20.266853 0.000000 0.000000 0.000000 0.000000 0.000000 0.000000 3.579737 5.329745 -16.147684 0.460357 -5.193121 1.241038 2.496868 1.886437 -6.290637 0.000000 0.000000 0.000000 0.992080 1.519120 -15.298207 3.605103 0.392997 0.908712 14.803424 -39.967522 -7.539427 0.000000 0.000000 0.000000
25.962886 76.549846 368.109737 -0.513232 -1.725564 15.406798 0.327163 -0.178206 -15.427092 0.142327 -0.211142 -0.004511 -6.864635 -0.398436 -0.581993 0.000000 0.000000 0.000000 -10.512316 25.034280 -1.123110 92.503118 53.243089 -55.763468 -35.732137 -15.508054 6.051731 -31.219411 17.752492 -29.201010 0.000000 0.000000 0.000000 0.000000 0.000000 0.000000 -7.218094 22.062600 7.277392 -94.986715 16.117551 17.212823 20.473798 13.244611 3.221623 -10.320625 10.274956 23.821451 0.000000 0.000000 0.000000 0.000000 0.000000 0.000000 3.458777 5.504705 -16.324410 0.844827 -5.541197 1.385825 4.237457 -6.183718 -6.416745 0.000000 0.000000 0.000000 0.953508 1.527068 -15.427234 3.671010 0.150696 0.927988 18.283863 -43.983319 -4.516266 0.000000 0.000000 0.000000
25.901803 76.594159 368.057649 -0.429870 -1.737143 15.271391 0.292511 -0.238437 -15.288563 0.126288 -0.229879 -0.003125 -7.314301 0.001828 -0.519468 0.000000 0.000000 0.000000 -10.522749 24.150428 -1.071005 93.335432 53.968767 -57.877130 -35.856180 -18.721299 5.793622 -17.359414 5.101607 -22.462255 0.000000 0.000000 0.000000 0.000000 0.000000 0.000000 -6.681022 22.831578 7.297444 -95.208682 15.964556 15.989510 22.395882 8.104361 0.214577 -13.703592 13.582165 26.263673 0.000000 0.000000 0.000000 0.000000 0.000000 0.000000 3.316078 5.567775 -16.194679 1.185838 -5.655763 1.490412 5.663221 -13.553717 -6.154805 0.000000 0.000000 0.000000 0.872511 1.562470 -15.289806 3.791305 -0.069904 0.961068 14.633871 -40.424317 -8.429049 0.000000 0.000000 0.000000
25.841728 76.596911 368.040989 -0.369592 -1.796848 15.179251 0.269018 -0.296718 -15.194469 0.112652 -0.247682 -0.002260 -7.733401 0.765145 -0.375798 0.000000 0.000000 0.000000 -10.197694 23.652392 -1.083925 92.775390 54.619403 -58.797791 -35.002099 -21.843764 6.084535 -10.886874 -0.895122 -18.149818 0.000000 0.000000 0.000000 0.000000 0.000000 0.000000 -5.534483 23.327190 7.014467 -95.469389 15.800666 15.067251 21.436512 1.793117 -3.671548 -14.735089 16.047551 28.829315 0.000000 0.000000 0.000000 0.000000 0.000000 0.000000 3.325593 5.704557 -16.118733 1.359503 -5.845904 1.573659 6.134577 -18.198645 -5.226448 0.000000 0.000000 0.000000 0.827461 1.637288 -15.196871 3.659606 -0.014683 0.927005 11.513050 -36.472601 -11.909057 0.000000 0.000000 0.000000
25.767588 76.614139 368.021440 -0.310268 -1.858835 15.100646 0.251338 -0.350298 -15.113771 0.095767 -0.268526 -0.001381 -8.293753 1.848262 -0.155593 0.000000 0.000000 0.000000 -9.716062 23.354443 -1.132709 92.004687 55.472959 -59.753482 -33.978323 -25.914438 6.388399 -6.961361 1.014143 -15.921934 0.000000 0.000000 0.000000 0.000000 0.000000 0.000000 -3.916496 23.652958 6.510658 -95.739212 15.731018 14.387186 20.322751 -1.840604 -5.970336 -11.321813 17.629475 29.092553 0.000000 0.000000 0.000000 0.000000 0.000000 0.000000 3.386871 5.679889 -16.013277 1.411928 -5.746005 1.586394 5.494562 -19.130061 -4.203652 0.000000 0.000000 0.000000 0.784092 1.713734 -15.117407 3.919211 -0.078641 0.993656 11.214949 -35.752541 -11.178718 0.000000 0.000000 0.000000
25.684332 76.626132 367.999837 -0.248564 -1.937463 14.951131 0.256729 -0.424505 -14.961648 0.098732 -0.315004 0.001558 -9.183360 2.990027 0.084489 0.000000 0.000000 0.000000 -9.572298 23.087450 -1.119804 91.509006 55.089513 -59.443622 -33.492614 -26.024207 6.679687 -3.925998 4.375075 -15.271900 0.000000 0.000000 0.000000 0.000000 0.000000 0.000000 -2.148348 23.631154 5.822850 -95.975707 16.084992 14.687088 18.618223 -3.541470 -7.241707 -7.082799 17.319416 27.386355 0.000000 0.000000 0.000000 0.000000 0.000000 0.000000 3.449154 5.646502 -15.829679 1.415107 -5.569367 1.575091 3.326193 -14.622375 -3.357777 0.000000 0.000000 0.000000 0.809992 2.711379 -14.821823 4.355799 -1.079506 0.983336 9.981571 -34.348533 -12.173649 0.000000 0.000000 0.000000
25.600864 76.642851 367.960115 -0.234050 -1.990132 14.747072 0.220433 -0.440266 -14.757806 0.058992 -0.335823 -0.001486 -9.491665 3.569781 0.218342 0.000000 0.000000 0.000000 -9.589742 22.787759 -1.065680 92.264366 55.305861 -60.488324 -33.405175 -25.325320 6.769867 1.765076 -0.317786 -12.564841 0.000000 0.000000 0.000000 0.000000 0.000000 0.000000 -1.217510 23.808354 5.549838 -95.334998 16.848425 14.987310 15.830509 -2.076342 -6.980572 -4.669702 13.897654 24.638673 0.000000 0.000000 0.000000 0.000000 0.000000 0.000000 3.498022 5.580948 -15.591887 1.532593 -5.462642 1.595699 2.498975 -13.910379 -2.864682 0.000000 0.000000 0.000000 0.796009 2.874593 -14.602630 4.545287 -0.826272 1.013272 10.804406 -35.731489 -10.733206 0.000000 0.000000 0.000000
25.527872 76.642811 367.929931 -0.265662 -2.024949 14.653296 0.158280 -0.396573 -14.666838 0.004937 -0.329927 -0.008418 -9.365059 3.632737 0.240338 0.000000 0.000000 0.000000 -9.130275 22.321950 -1.085346 93.333320 56.045933 -62.762990 -31.504109 -23.902369 8.086568 4.770317 -3.249864 -11.000419 0.000000 0.000000 0.000000 0.000000 0.000000 0.000000 -0.798335 23.802237 5.464486 -94.137226 17.976721 15.754214 11.559785 -0.167332 -6.840623 -5.938046 8.522374 21.453395 0.000000 0.000000 0.000000 0.000000 0.000000 0.000000 3.522268 5.488132 -15.468086 1.637122 -5.246037 1.591761 2.162704 -13.329583 -2.882447 0.000000 0.000000 0.000000 0.882130 2.823946 -14.513962 4.682655 -0.801871 1.065679 9.173212 -32.759572 -11.021229 0.000000 0.000000 0.000000
25.474058 76.652366 367.889615 -0.319380 -2.009957 14.583751 0.091370 -0.341430 -14.600876 -0.041802 -0.304404 -0.015904 -9.060393 3.359668 0.188271 0.000000 0.000000 0.000000 -8.949872 21.618031 -1.055124 95.909642 57.449916 -66.896883 -26.875852 -26.429627 11.081838 2.736080 0.070658 -12.200480 0.000000 0.000000 0.000000 0.000000 0.000000 0.000000 -1.271499 23.759687 5.702311 -92.361150 19.572491 16.991543 5.768909 -1.753664 -9.532277 -1.101891 10.632108 23.833815 0.000000 0.000000 0.000000 0.000000 0.000000 0.000000 3.532081 5.350118 -15.369228 1.728910 -5.046333 1.582214 3.250171 -17.524093 -2.810311 0.000000 0.000000 0.000000 0.833131 2.790954 -14.461060 4.916284 -0.609623 1.118414 11.491136 -36.189012 -8.340020 0.000000 0.000000 0.000000
